<?xml version="1.0" encoding="UTF-8"?>
<svg width="200px" height="200px" viewBox="0 0 200 200" version="1.1" xmlns="http://www.w3.org/2000/svg" xmlns:xlink="http://www.w3.org/1999/xlink">
    <title>原版</title>
    <defs>
        <linearGradient x1="50%" y1="100%" x2="50%" y2="0%" id="linearGradient-1">
            <stop stop-color="#FFFFFF" offset="0%"></stop>
            <stop stop-color="#D1EAFF" offset="100%"></stop>
        </linearGradient>
        <path d="M67.9999987,0 C45.8333333,0 38.75,-1.55609333e-08 28.75,3.33333333 C16.9666672,7.5 7.5,16.9666672 3.33333333,28.75 C0,38.75 0,45.8333333 0,67.9999987 C0,67.9999987 1.23798867e-07,131.999995 0,131.999995 C1.23798867e-07,154.166667 9.93327257e-08,161.25 3.33333333,171.25 C7.50773112,183.033333 16.9666672,192.5 28.75,196.666667 C38.75,200 45.8333333,200 67.9999987,200 L131.999995,200 C154.166667,200 161.25,200 171.25,196.666667 C183.033333,192.5 192.5,183.033333 196.666667,171.25 C200,161.25 200,154.166667 200,131.999995 L200,67.9999987 C200,45.8333333 200,38.75 196.666667,28.75 C192.5,17.0833333 182.899996,7.5 171.23333,3.33333333 C161.23333,9.33818948e-09 154.166667,3.51775024e-08 131.999995,0 L67.9999987,0 Z" id="path-2"></path>
    </defs>
    <g id="主页面" stroke="none" stroke-width="1" fill="none" fill-rule="evenodd">
        <g id="方形图标" transform="translate(-50.000000, -200.000000)">
            <g id="原版" transform="translate(50.000000, 200.000000)">
                <mask id="mask-3" fill="white">
                    <use xlink:href="#path-2" transform="translate(100.000000, 100.000000) scale(-1, -1) translate(-100.000000, -100.000000) "></use>
                </mask>
                <use id="iconbase" fill="url(#linearGradient-1)" transform="translate(100.000000, 100.000000) scale(-1, -1) translate(-100.000000, -100.000000) " xlink:href="#path-2"></use>
                <g id="Logo" mask="url(#mask-3)">
                    <g transform="translate(27.000000, 14.000000)">
                        <path d="M73,0 L146,52.9218906 L146,142.248649 L79.4888889,142.248649 L73,137.722555 L66.5111111,142.248649 L0,142.248649 L0,52.9218906 L73,0 Z" id="Bootom" fill="#FFFFFF"></path>
                        <g id="Logo" stroke-width="1" fill="none" transform="translate(72.070064, 72.518919) scale(-1, 1) rotate(-180.000000) translate(-72.070064, -72.518919) translate(7.439490, 9.297297)">
                            <path d="M0,79.3495863 L0,0 L56.7287015,0 C53.4464631,4.38384042 50.5639204,8.46474854 48.0810736,12.2427244 C40.880302,22.8949418 37.9831866,33.0129364 38.1454194,42.9417846 C38.2569901,49.7700459 39.9482969,56.5329058 43.3029522,63.2216216 C45.7018833,68.0047566 49.4078712,72.1180576 53.2114187,75.9333814 C57.799039,80.5352055 61.5971546,82.1292322 64.5977723,82.1292322 C67.3026573,82.1292322 72.2605335,79.6159912 76.871349,75.2137839 C81.2820654,71.0026226 85.2687944,64.6286686 87.3771269,60.2338687 C89.496813,55.8361706 90.8854295,51.0585545 91.1612949,46.0321329 C91.395305,41.7683381 91.1177895,39.6435218 90.5779027,35.357302 C90.4134814,34.051944 89.3887639,29.7963385 88.7134536,27.4632941 C88.1781399,25.6139068 87.0679712,22.1643993 85.3829473,17.1147718 L79.2545978,18.8950782 C79.8681617,21.1933544 80.8458118,24.3016601 82.1875482,28.2199953 C82.3075358,28.5704006 82.7081882,30.0114241 82.7856356,30.3205564 C83.2824027,32.3034066 83.8077509,34.4306515 84.0921614,36.5163228 C84.5230556,39.6762058 84.4724919,42.6787296 84.4724919,44.4253426 C84.3955907,47.5686155 83.7065748,51.7786619 82.1875482,55.632895 C79.8347153,61.6027484 76.1003495,67.0520305 72.1696213,70.614451 C69.4153137,73.110681 66.8108294,74.0096386 64.5977723,73.8314159 C63.3459315,73.7306022 62.5306951,73.2919036 61.1143266,72.5858932 C57.9242765,71.1945303 53.514165,66.5447942 50.4804226,60.2338687 C47.5490508,54.1358992 46.3330048,46.6802238 46.3330048,41.5906614 C46.3330048,36.790777 47.3828041,31.1218717 49.5168569,25.762857 C52.7694511,17.5949712 58.6704375,10.6912172 65.7719392,5.85342005 C68.1532807,4.13157897 69.9309006,2.96112301 71.1047991,2.34205219 C72.3974362,1.660363 74.3196195,0.879678936 76.871349,0 L129.195545,0 L129.034947,40.7729555 C129.121552,49.2773481 129.185337,56.375623 129.226301,62.0677802 C129.281406,69.7247025 129.271153,75.4853045 129.195545,79.3495863 L64.5977723,126.443243 L0,79.3495863 Z" id="路径" fill="#063C7C" fill-rule="nonzero"></path>
                        </g>
                        <path d="M102.292994,172 L102.292994,157.124324 L117.171975,157.124324 L117.171975,172 L102.292994,172 Z M106.091882,168.281081 L115.271994,168.280324 L115.271994,165.801324 L106.091882,165.801802 L106.091882,168.281081 Z M106.091882,162.702703 L115.271994,162.702324 L115.271994,160.533324 L106.091882,160.533333 L106.091882,162.702703 Z" id="B" fill="#063C7C"></path>
                        <path d="M81.8343949,157.124324 L81.8343949,160.533333 L70.120414,160.533324 L70.120414,162.702324 L76.4526359,162.702703 L76.4526359,165.801802 L70.120414,165.801324 L70.120414,168.280324 L81.8343949,168.281081 L81.8343949,172 L66.955414,172 L66.955414,157.124324 L81.8343949,157.124324 Z" id="E" fill="#063C7C"></path>
                        <path d="M34.4076433,172 L34.4076433,157.124324 L37.8174098,157.124324 L37.8174098,168.281081 L49.2866242,168.281081 L49.2866242,172 L34.4076433,172 Z" id="L" fill="#063C7C"></path>
                    </g>
                </g>
            </g>
        </g>
    </g>
</svg>